<svg version="1.1" id="Layer_1" xmlns="http://www.w3.org/2000/svg" xmlns:xlink="http://www.w3.org/1999/xlink" x="0px" y="0px"
	 width="100%" viewBox="0 0 500 500" enable-background="new 0 0 500 500" xml:space="preserve">
<path fill="#013566" opacity="1.000000" stroke="none" 
	d="
M501.000000,174.000000 
	C501.000000,283.333313 501.000000,392.166595 501.000000,500.999939 
	C334.333405,500.999939 167.666794,500.999939 1.000148,500.999969 
	C1.000099,334.333435 1.000099,167.666870 1.000049,1.000237 
	C167.666519,1.000158 334.333038,1.000158 500.999786,1.000079 
	C501.000000,58.500000 501.000000,116.000000 501.000000,174.000000 
M393.899597,79.804840 
	C382.647766,80.103020 371.395935,80.401192 359.573456,80.714493 
	C361.143860,94.705345 362.638123,108.017860 364.100006,121.041962 
	C378.318024,121.041962 392.161133,121.041962 406.321320,121.041962 
	C405.655243,116.323158 405.125977,112.375839 404.536652,108.437508 
	C403.122528,98.987556 401.680267,89.541817 401.131439,79.878632 
	C407.737671,79.878632 414.343903,79.878632 421.726166,79.878632 
	C420.390442,70.509460 419.228516,62.359512 418.115753,54.554245 
	C409.503021,54.554245 401.320801,54.554245 392.798401,54.554245 
	C393.086121,57.386787 393.350433,59.513554 393.509796,61.648155 
	C393.964569,67.739899 394.376648,73.834831 393.899597,79.804840 
M320.049438,246.641296 
	C327.092438,277.474823 318.158569,313.330139 281.252563,329.454620 
	C251.748825,342.345062 221.637161,341.176178 191.370255,332.672272 
	C183.598206,330.488586 176.052979,327.497559 168.320984,324.849121 
	C168.320984,343.360779 168.320984,361.575470 168.320984,379.655060 
	C241.701660,379.655060 314.735687,379.655060 387.905212,379.655060 
	C378.965118,295.604034 370.062897,211.909409 361.164520,128.250595 
	C338.985260,128.250595 317.393677,128.250595 295.311066,128.250595 
	C295.311066,138.227890 295.311066,147.967270 295.311066,157.668869 
	C294.502350,157.729095 294.122314,157.877838 293.879486,157.755081 
	C292.694183,157.155853 291.540222,156.493484 290.384735,155.836578 
	C276.583496,147.990784 262.163635,141.620499 246.561981,138.377808 
	C234.566849,135.884720 222.444092,134.614807 210.663696,139.364517 
	C202.265808,142.750473 196.473663,148.600174 195.407471,158.077042 
	C194.393127,167.092987 199.207672,173.040344 206.381851,177.206512 
	C212.103439,180.529160 218.064850,183.616623 224.247589,185.934006 
	C242.599228,192.812515 261.446014,198.471161 279.470367,206.093628 
	C297.852631,213.867493 312.889374,226.029434 320.049438,246.641296 
M180.683060,105.070282 
	C187.121368,102.409492 193.375305,99.103806 200.030380,97.201286 
	C226.625931,89.598297 252.772339,92.938957 278.576965,101.402107 
	C281.631805,102.403999 284.645966,103.529945 287.771149,104.630852 
	C287.771149,91.478233 287.771149,78.893921 287.771149,65.887619 
	C277.372894,65.887619 267.280243,65.887619 257.185333,65.887619 
	C258.517517,27.974014 230.739944,9.224931 207.231079,9.377461 
	C193.963150,9.463545 182.339645,13.552000 172.624939,22.527493 
	C160.090057,34.108566 155.000183,48.717205 156.354370,66.057014 
	C142.006104,66.057014 128.072845,66.057014 114.027992,66.057014 
	C105.256317,149.367462 96.531990,232.228271 87.806862,315.096680 
	C111.729858,315.096680 134.776520,315.096680 158.211319,315.096680 
	C158.211319,298.945953 158.211319,283.206451 158.211319,266.777100 
	C160.421158,268.226990 162.076752,269.239166 163.655106,270.360138 
	C181.299881,282.891693 200.664383,291.339905 222.124207,294.570923 
	C234.602158,296.449615 247.073517,296.750153 258.850220,291.109039 
	C266.947479,287.230408 271.763885,280.930878 272.416382,271.683136 
	C273.052307,262.669861 269.144958,255.885773 261.529083,251.901505 
	C253.477768,247.689407 244.968048,244.238449 236.414734,241.124893 
	C218.469772,234.592651 199.933701,229.496918 182.450668,221.937378 
	C165.943237,214.799667 152.867844,202.621155 148.105072,184.509552 
	C140.028793,153.797379 150.514099,123.243073 180.683060,105.070282 
M120.220131,446.418884 
	C120.154755,444.950226 120.089386,443.481567 120.015419,441.819763 
	C115.277901,441.819763 110.835503,441.819763 105.990166,441.819763 
	C105.990166,444.837677 105.883270,447.634766 106.010262,450.421143 
	C106.386894,458.685028 110.619583,462.819000 118.960442,463.006897 
	C123.785690,463.115631 128.622253,463.167267 133.442093,462.965942 
	C140.478500,462.672028 144.606644,458.867767 145.090393,451.813873 
	C145.510956,445.681366 145.540451,439.497498 145.321594,433.351318 
	C144.976135,423.649658 141.128342,420.007507 131.394135,419.561066 
	C119.800606,419.029327 119.911385,419.031677 120.153351,407.448181 
	C120.225266,404.005096 121.343163,402.679321 124.838959,402.850647 
	C127.845734,402.998016 130.724640,402.692780 130.204193,407.113281 
	C130.093781,408.050995 130.361664,409.033203 130.477234,410.220825 
	C135.245132,410.220825 139.814987,410.220825 144.339371,410.220825 
	C146.146729,396.499451 141.523117,391.033447 128.402298,391.013428 
	C125.072670,391.008331 121.737740,390.921844 118.414398,391.073303 
	C110.694008,391.425140 106.390808,395.564117 106.052017,403.255981 
	C105.803169,408.905579 105.862885,414.577301 106.004631,420.233673 
	C106.222206,428.916046 110.130875,432.843658 118.874336,433.472992 
	C131.413788,434.375549 131.354172,434.374207 131.064041,447.034821 
	C131.001633,449.757568 130.564835,451.759186 127.311836,451.443542 
	C124.359329,451.157074 120.030533,453.064331 120.220131,446.418884 
M282.562836,479.127563 
	C285.339203,479.127563 288.115601,479.127563 290.891388,479.127563 
	C290.891388,455.531830 290.891388,432.523865 290.891388,409.564362 
	C281.479095,408.593201 280.133484,408.825287 278.200775,411.639587 
	C277.225464,411.022003 276.294403,410.316315 275.267975,409.800507 
	C264.799011,404.539307 253.288483,409.541321 252.584122,420.240326 
	C251.907990,430.510437 252.050568,440.881104 252.581207,451.169037 
	C252.996292,459.216431 257.331909,462.925110 265.173401,462.959167 
	C269.028748,462.975952 272.887329,462.242126 277.010498,461.820801 
	C277.010498,467.287689 277.010498,472.910950 277.010498,478.850647 
	C278.696472,478.952606 280.141876,479.040039 282.562836,479.127563 
M210.308395,409.483002 
	C206.106079,411.472351 203.992706,415.001526 203.919693,419.440613 
	C203.741699,430.261963 203.585678,441.098267 203.968658,451.909119 
	C204.215698,458.882874 208.617477,462.704132 215.688934,462.970245 
	C220.679703,463.158020 225.689987,463.161957 230.679779,462.958862 
	C237.333130,462.688049 241.739059,459.272278 242.060623,452.718323 
	C242.614212,441.435455 242.596436,430.090790 242.102737,418.803406 
	C241.824692,412.446960 238.183365,408.858917 231.902878,408.505554 
	C224.982376,408.116150 217.996567,408.886963 210.308395,409.483002 
M372.794708,461.702789 
	C374.026031,460.923950 375.257355,460.145111 375.518646,459.979828 
	C380.188141,463.492889 384.627686,461.355530 388.784790,462.034088 
	C388.784790,444.149017 388.784790,426.899872 388.784790,409.125854 
	C384.388672,410.089264 379.699982,406.993469 376.019196,411.655457 
	C375.087585,411.076630 374.023285,410.289062 372.855713,409.709595 
	C362.231354,404.437042 350.768280,409.673004 350.239502,420.447266 
	C349.741821,430.587646 349.891937,440.779449 350.218018,450.933807 
	C350.438385,457.795807 354.192047,462.188812 360.211975,462.744843 
	C364.101227,463.104126 368.099579,462.282410 372.794708,461.702789 
M340.068726,450.481659 
	C340.050598,440.667206 340.180634,430.849518 339.968750,421.039246 
	C339.790558,412.790466 335.473602,408.401306 327.210266,408.254974 
	C323.824982,408.195038 320.417145,409.306396 317.023102,409.904785 
	C316.129089,410.062408 315.220032,410.545319 314.365936,410.449707 
	C310.023560,409.963684 305.696991,409.336700 301.358429,408.758179 
	C301.358429,427.240662 301.358429,444.466187 301.358429,461.657257 
	C306.234985,461.657257 310.786377,461.657257 315.699371,461.657257 
	C315.699371,448.692657 315.814331,436.074524 315.628693,423.460785 
	C315.573639,419.719879 316.858887,418.651642 320.515564,418.599884 
	C324.462891,418.544006 325.765930,419.824249 325.706940,423.762146 
	C325.517914,436.376740 325.636749,448.995911 325.636749,461.694916 
	C330.658447,461.694916 335.214722,461.694916 340.068726,461.694916 
	C340.068726,458.080933 340.068726,454.777985 340.068726,450.481659 
M154.972565,420.857971 
	C154.974838,430.848877 154.790588,440.844421 155.039383,450.829193 
	C155.232529,458.580170 159.617584,462.730988 167.332703,462.985809 
	C171.824020,463.134186 176.325989,463.117554 180.819351,463.012268 
	C188.916824,462.822510 193.393463,458.974609 193.724030,450.882446 
	C194.138245,440.742737 194.137573,430.560150 193.719482,420.420654 
	C193.387634,412.372528 188.987106,408.530914 180.832642,408.177307 
	C176.677231,407.997101 172.504364,408.023834 168.345688,408.155609 
	C159.953873,408.421539 156.460251,411.575562 154.972565,420.857971 
M330.128571,71.382858 
	C330.604034,73.777496 331.079529,76.172127 331.599792,78.792206 
	C340.437012,78.792206 348.978302,78.792206 357.715881,78.792206 
	C356.531281,69.957787 355.394531,61.480480 354.250153,52.946068 
	C344.905334,52.946068 336.221863,52.946068 327.266937,52.946068 
	C328.234650,59.098358 329.133118,64.810303 330.128571,71.382858 
M369.066681,50.775608 
	C377.118134,50.775608 385.169556,50.775608 393.718933,50.775608 
	C392.312256,41.307034 391.106812,33.192982 389.932556,25.289103 
	C381.338470,25.289103 373.277710,25.289103 364.312408,25.289103 
	C365.661255,34.069496 366.928772,42.320652 369.066681,50.775608 
z"/>
<path fill="#FEC200" opacity="1.000000" stroke="none" 
	d="
M319.978302,246.242111 
	C312.889374,226.029434 297.852631,213.867493 279.470367,206.093628 
	C261.446014,198.471161 242.599228,192.812515 224.247589,185.934006 
	C218.064850,183.616623 212.103439,180.529160 206.381851,177.206512 
	C199.207672,173.040344 194.393127,167.092987 195.407471,158.077042 
	C196.473663,148.600174 202.265808,142.750473 210.663696,139.364517 
	C222.444092,134.614807 234.566849,135.884720 246.561981,138.377808 
	C262.163635,141.620499 276.583496,147.990784 290.384735,155.836578 
	C291.540222,156.493484 292.694183,157.155853 293.879486,157.755081 
	C294.122314,157.877838 294.502350,157.729095 295.311066,157.668869 
	C295.311066,147.967270 295.311066,138.227890 295.311066,128.250595 
	C317.393677,128.250595 338.985260,128.250595 361.164520,128.250595 
	C370.062897,211.909409 378.965118,295.604034 387.905212,379.655060 
	C314.735687,379.655060 241.701660,379.655060 168.320984,379.655060 
	C168.320984,361.575470 168.320984,343.360779 168.320984,324.849121 
	C176.052979,327.497559 183.598206,330.488586 191.370255,332.672272 
	C221.637161,341.176178 251.748825,342.345062 281.252563,329.454620 
	C318.158569,313.330139 327.092438,277.474823 319.978302,246.242111 
z"/>
<path fill="#D8D8D8" opacity="1.000000" stroke="none" 
	d="
M180.371918,105.266106 
	C150.514099,123.243073 140.028793,153.797379 148.105072,184.509552 
	C152.867844,202.621155 165.943237,214.799667 182.450668,221.937378 
	C199.933701,229.496918 218.469772,234.592651 236.414734,241.124893 
	C244.968048,244.238449 253.477768,247.689407 261.529083,251.901505 
	C269.144958,255.885773 273.052307,262.669861 272.416382,271.683136 
	C271.763885,280.930878 266.947479,287.230408 258.850220,291.109039 
	C247.073517,296.750153 234.602158,296.449615 222.124207,294.570923 
	C200.664383,291.339905 181.299881,282.891693 163.655106,270.360138 
	C162.076752,269.239166 160.421158,268.226990 158.211319,266.777100 
	C158.211319,283.206451 158.211319,298.945953 158.211319,315.096680 
	C134.776520,315.096680 111.729858,315.096680 87.806862,315.096680 
	C96.531990,232.228271 105.256317,149.367462 114.027992,66.057014 
	C128.072845,66.057014 142.006104,66.057014 156.354370,66.057014 
	C155.000183,48.717205 160.090057,34.108566 172.624939,22.527493 
	C182.339645,13.552000 193.963150,9.463545 207.231079,9.377461 
	C230.739944,9.224931 258.517517,27.974014 257.185333,65.887619 
	C267.280243,65.887619 277.372894,65.887619 287.771149,65.887619 
	C287.771149,78.893921 287.771149,91.478233 287.771149,104.630852 
	C284.645966,103.529945 281.631805,102.403999 278.576965,101.402107 
	C252.772339,92.938957 226.625931,89.598297 200.030380,97.201286 
	C193.375305,99.103806 187.121368,102.409492 180.371918,105.266106 
M190.828629,25.135927 
	C174.414093,33.351433 164.891357,51.731689 169.688217,65.708221 
	C194.464767,65.708221 219.192612,65.708221 244.276932,65.708221 
	C245.633820,51.571239 241.645172,39.724373 230.865692,30.731710 
	C219.072952,20.893730 205.762726,19.421860 190.828629,25.135927 
z"/>
<path fill="#FABA59" opacity="1.000000" stroke="none" 
	d="
M120.221474,446.868164 
	C120.030533,453.064331 124.359329,451.157074 127.311836,451.443542 
	C130.564835,451.759186 131.001633,449.757568 131.064041,447.034821 
	C131.354172,434.374207 131.413788,434.375549 118.874336,433.472992 
	C110.130875,432.843658 106.222206,428.916046 106.004631,420.233673 
	C105.862885,414.577301 105.803169,408.905579 106.052017,403.255981 
	C106.390808,395.564117 110.694008,391.425140 118.414398,391.073303 
	C121.737740,390.921844 125.072670,391.008331 128.402298,391.013428 
	C141.523117,391.033447 146.146729,396.499451 144.339371,410.220825 
	C139.814987,410.220825 135.245132,410.220825 130.477234,410.220825 
	C130.361664,409.033203 130.093781,408.050995 130.204193,407.113281 
	C130.724640,402.692780 127.845734,402.998016 124.838959,402.850647 
	C121.343163,402.679321 120.225266,404.005096 120.153351,407.448181 
	C119.911385,419.031677 119.800606,419.029327 131.394135,419.561066 
	C141.128342,420.007507 144.976135,423.649658 145.321594,433.351318 
	C145.540451,439.497498 145.510956,445.681366 145.090393,451.813873 
	C144.606644,458.867767 140.478500,462.672028 133.442093,462.965942 
	C128.622253,463.167267 123.785690,463.115631 118.960442,463.006897 
	C110.619583,462.819000 106.386894,458.685028 106.010262,450.421143 
	C105.883270,447.634766 105.990166,444.837677 105.990166,441.819763 
	C110.835503,441.819763 115.277901,441.819763 120.015419,441.819763 
	C120.089386,443.481567 120.154755,444.950226 120.221474,446.868164 
z"/>
<path fill="#FBBB59" opacity="1.000000" stroke="none" 
	d="
M282.075073,479.127502 
	C280.141876,479.040039 278.696472,478.952606 277.010498,478.850647 
	C277.010498,472.910950 277.010498,467.287689 277.010498,461.820801 
	C272.887329,462.242126 269.028748,462.975952 265.173401,462.959167 
	C257.331909,462.925110 252.996292,459.216431 252.581207,451.169037 
	C252.050568,440.881104 251.907990,430.510437 252.584122,420.240326 
	C253.288483,409.541321 264.799011,404.539307 275.267975,409.800507 
	C276.294403,410.316315 277.225464,411.022003 278.201599,411.638306 
	C280.133484,408.825287 281.479095,408.593201 290.891388,409.564362 
	C290.891388,432.523865 290.891388,455.531830 290.891388,479.127563 
	C288.115601,479.127563 285.339203,479.127563 282.075073,479.127502 
M266.905396,441.459137 
	C266.906921,443.945129 267.046265,446.440552 266.877686,448.914948 
	C266.625336,452.619110 268.917847,452.823639 271.657928,452.805206 
	C274.471069,452.786285 277.017120,452.872803 276.957397,448.827484 
	C276.827728,440.045502 276.823730,431.258911 276.957214,422.477051 
	C277.021210,418.267090 274.243195,418.771301 271.569550,418.677307 
	C268.777771,418.579193 266.725464,418.886719 266.852814,422.572388 
	C267.058746,428.531647 266.906433,434.503296 266.905396,441.459137 
z"/>
<path fill="#FCC101" opacity="1.000000" stroke="none" 
	d="
M400.249329,80.094391 
	C401.680267,89.541817 403.122528,98.987556 404.536652,108.437508 
	C405.125977,112.375839 405.655243,116.323158 406.321320,121.041962 
	C392.161133,121.041962 378.318024,121.041962 364.100006,121.041962 
	C362.638123,108.017860 361.143860,94.705345 359.573456,80.714493 
	C371.395935,80.401192 382.647766,80.103020 394.805969,79.886902 
	C397.224701,80.010765 398.737000,80.052574 400.249329,80.094391 
z"/>
<path fill="#FBBB59" opacity="1.000000" stroke="none" 
	d="
M210.673798,409.317688 
	C217.996567,408.886963 224.982376,408.116150 231.902878,408.505554 
	C238.183365,408.858917 241.824692,412.446960 242.102737,418.803406 
	C242.596436,430.090790 242.614212,441.435455 242.060623,452.718323 
	C241.739059,459.272278 237.333130,462.688049 230.679779,462.958862 
	C225.689987,463.161957 220.679703,463.158020 215.688934,462.970245 
	C208.617477,462.704132 204.215698,458.882874 203.968658,451.909119 
	C203.585678,441.098267 203.741699,430.261963 203.919693,419.440613 
	C203.992706,415.001526 206.106079,411.472351 210.673798,409.317688 
M228.060806,441.472809 
	C228.059738,434.668335 227.932465,427.860596 228.108444,421.060699 
	C228.202850,417.412262 226.167740,417.055664 223.356476,417.108032 
	C220.583481,417.159668 217.962402,416.924133 218.014481,421.025665 
	C218.136658,430.649963 218.112900,440.277466 218.015961,449.902344 
	C217.986328,452.844604 219.038116,453.931885 222.069305,454.091980 
	C226.357452,454.318451 228.845352,453.399017 228.108063,448.429657 
	C227.818954,446.480988 228.060776,444.453552 228.060806,441.472809 
z"/>
<path fill="#FABA59" opacity="1.000000" stroke="none" 
	d="
M372.421875,461.846344 
	C368.099579,462.282410 364.101227,463.104126 360.211975,462.744843 
	C354.192047,462.188812 350.438385,457.795807 350.218018,450.933807 
	C349.891937,440.779449 349.741821,430.587646 350.239502,420.447266 
	C350.768280,409.673004 362.231354,404.437042 372.855713,409.709595 
	C374.023285,410.289062 375.087585,411.076630 376.019196,411.655457 
	C379.699982,406.993469 384.388672,410.089264 388.784790,409.125854 
	C388.784790,426.899872 388.784790,444.149017 388.784790,462.034088 
	C384.627686,461.355530 380.188141,463.492889 375.518646,459.979828 
	C375.257355,460.145111 374.026031,460.923950 372.421875,461.846344 
M364.656799,443.172241 
	C364.662201,445.162506 364.751190,447.156830 364.655121,449.142181 
	C364.469879,452.971039 367.069366,452.773132 369.660919,452.813599 
	C372.359619,452.855774 374.708923,452.727081 374.684723,449.058685 
	C374.625549,440.102905 374.800903,431.141907 374.502808,422.195648 
	C374.462646,420.990997 372.414001,419.276550 370.979462,418.842529 
	C369.223694,418.311310 367.134827,418.881073 364.656860,419.000488 
	C364.656860,427.029083 364.656860,434.632355 364.656799,443.172241 
z"/>
<path fill="#FABA59" opacity="1.000000" stroke="none" 
	d="
M340.068726,450.978333 
	C340.068726,454.777985 340.068726,458.080933 340.068726,461.694916 
	C335.214722,461.694916 330.658447,461.694916 325.636749,461.694916 
	C325.636749,448.995911 325.517914,436.376740 325.706940,423.762146 
	C325.765930,419.824249 324.462891,418.544006 320.515564,418.599884 
	C316.858887,418.651642 315.573639,419.719879 315.628693,423.460785 
	C315.814331,436.074524 315.699371,448.692657 315.699371,461.657257 
	C310.786377,461.657257 306.234985,461.657257 301.358429,461.657257 
	C301.358429,444.466187 301.358429,427.240662 301.358429,408.758179 
	C305.696991,409.336700 310.023560,409.963684 314.365936,410.449707 
	C315.220032,410.545319 316.129089,410.062408 317.023102,409.904785 
	C320.417145,409.306396 323.824982,408.195038 327.210266,408.254974 
	C335.473602,408.401306 339.790558,412.790466 339.968750,421.039246 
	C340.180634,430.849518 340.050598,440.667206 340.068726,450.978333 
z"/>
<path fill="#FABB59" opacity="1.000000" stroke="none" 
	d="
M154.988098,420.407288 
	C156.460251,411.575562 159.953873,408.421539 168.345688,408.155609 
	C172.504364,408.023834 176.677231,407.997101 180.832642,408.177307 
	C188.987106,408.530914 193.387634,412.372528 193.719482,420.420654 
	C194.137573,430.560150 194.138245,440.742737 193.724030,450.882446 
	C193.393463,458.974609 188.916824,462.822510 180.819351,463.012268 
	C176.325989,463.117554 171.824020,463.134186 167.332703,462.985809 
	C159.617584,462.730988 155.232529,458.580170 155.039383,450.829193 
	C154.790588,440.844421 154.974838,430.848877 154.988098,420.407288 
M169.263245,422.838959 
	C169.263504,431.636047 169.415268,440.436920 169.197830,449.228607 
	C169.094635,453.401306 171.004532,454.074066 174.644638,454.130310 
	C178.565262,454.190918 179.404694,452.571899 179.337509,449.077118 
	C179.165268,440.117340 179.234528,431.151703 179.305023,422.189209 
	C179.328094,419.255798 179.178299,416.967499 175.201370,417.045105 
	C171.690781,417.113586 168.703018,417.183655 169.263245,422.838959 
z"/>
<path fill="#D6D7D7" opacity="1.000000" stroke="none" 
	d="
M330.080078,70.952553 
	C329.133118,64.810303 328.234650,59.098358 327.266937,52.946068 
	C336.221863,52.946068 344.905334,52.946068 354.250153,52.946068 
	C355.394531,61.480480 356.531281,69.957787 357.715881,78.792206 
	C348.978302,78.792206 340.437012,78.792206 331.599792,78.792206 
	C331.079529,76.172127 330.604034,73.777496 330.080078,70.952553 
z"/>
<path fill="#F9C002" opacity="1.000000" stroke="none" 
	d="
M400.690369,79.986511 
	C398.737000,80.052574 397.224701,80.010765 395.258942,79.948730 
	C394.376648,73.834831 393.964569,67.739899 393.509796,61.648155 
	C393.350433,59.513554 393.086121,57.386787 392.798401,54.554245 
	C401.320801,54.554245 409.503021,54.554245 418.115753,54.554245 
	C419.228516,62.359512 420.390442,70.509460 421.726166,79.878632 
	C414.343903,79.878632 407.737671,79.878632 400.690369,79.986511 
z"/>
<path fill="#D5D6D7" opacity="1.000000" stroke="none" 
	d="
M368.631500,50.673706 
	C366.928772,42.320652 365.661255,34.069496 364.312408,25.289103 
	C373.277710,25.289103 381.338470,25.289103 389.932556,25.289103 
	C391.106812,33.192982 392.312256,41.307034 393.718933,50.775608 
	C385.169556,50.775608 377.118134,50.775608 368.631500,50.673706 
z"/>
<path fill="#013667" opacity="1.000000" stroke="none" 
	d="
M191.193008,25.015030 
	C205.762726,19.421860 219.072952,20.893730 230.865692,30.731710 
	C241.645172,39.724373 245.633820,51.571239 244.276932,65.708221 
	C219.192612,65.708221 194.464767,65.708221 169.688217,65.708221 
	C164.891357,51.731689 174.414093,33.351433 191.193008,25.015030 
z"/>
<path fill="#063866" opacity="1.000000" stroke="none" 
	d="
M266.905396,440.964417 
	C266.906433,434.503296 267.058746,428.531647 266.852814,422.572388 
	C266.725464,418.886719 268.777771,418.579193 271.569550,418.677307 
	C274.243195,418.771301 277.021210,418.267090 276.957214,422.477051 
	C276.823730,431.258911 276.827728,440.045502 276.957397,448.827484 
	C277.017120,452.872803 274.471069,452.786285 271.657928,452.805206 
	C268.917847,452.823639 266.625336,452.619110 266.877686,448.914948 
	C267.046265,446.440552 266.906921,443.945129 266.905396,440.964417 
z"/>
<path fill="#043766" opacity="1.000000" stroke="none" 
	d="
M228.060806,441.967407 
	C228.060776,444.453552 227.818954,446.480988 228.108063,448.429657 
	C228.845352,453.399017 226.357452,454.318451 222.069305,454.091980 
	C219.038116,453.931885 217.986328,452.844604 218.015961,449.902344 
	C218.112900,440.277466 218.136658,430.649963 218.014481,421.025665 
	C217.962402,416.924133 220.583481,417.159668 223.356476,417.108032 
	C226.167740,417.055664 228.202850,417.412262 228.108444,421.060699 
	C227.932465,427.860596 228.059738,434.668335 228.060806,441.967407 
z"/>
<path fill="#0B3B65" opacity="1.000000" stroke="none" 
	d="
M364.656830,442.703949 
	C364.656860,434.632355 364.656860,427.029083 364.656860,419.000488 
	C367.134827,418.881073 369.223694,418.311310 370.979462,418.842529 
	C372.414001,419.276550 374.462646,420.990997 374.502808,422.195648 
	C374.800903,431.141907 374.625549,440.102905 374.684723,449.058685 
	C374.708923,452.727081 372.359619,452.855774 369.660919,452.813599 
	C367.069366,452.773132 364.469879,452.971039 364.655121,449.142181 
	C364.751190,447.156830 364.662201,445.162506 364.656830,442.703949 
z"/>
<path fill="#0B3B65" opacity="1.000000" stroke="none" 
	d="
M169.263962,422.382507 
	C168.703018,417.183655 171.690781,417.113586 175.201370,417.045105 
	C179.178299,416.967499 179.328094,419.255798 179.305023,422.189209 
	C179.234528,431.151703 179.165268,440.117340 179.337509,449.077118 
	C179.404694,452.571899 178.565262,454.190918 174.644638,454.130310 
	C171.004532,454.074066 169.094635,453.401306 169.197830,449.228607 
	C169.415268,440.436920 169.263504,431.636047 169.263962,422.382507 
z"/>
</svg>