<?xml version="1.0" encoding="iso-8859-1"?>
<!-- Generator: Adobe Illustrator 19.0.0, SVG Export Plug-In . SVG Version: 6.00 Build 0)  -->
<svg version="1.1" id="Layer_1" xmlns="http://www.w3.org/2000/svg" xmlns:xlink="http://www.w3.org/1999/xlink" x="0px" y="0px"
	 viewBox="0 0 495 495" style="enable-background:new 0 0 495 495;" xml:space="preserve">
<g>
	<rect x="89.916" style="fill:#FF9478;" width="157.585" height="75.221"/>
	<rect x="247.5" style="fill:#FF7956;" width="157.584" height="75.221"/>
	<path style="fill:#E0E0E2;" d="M247.5,298.793v-60.559c-43.495,0-78.754-35.335-78.754-78.841
		c0,43.505-35.259,78.841-78.765,78.841c-15.296,0-29.569-4.363-41.645-11.923c-1.329-0.831-2.629-1.703-3.903-2.61V495h118.398
		V298.793H247.5z"/>
	<path style="fill:#C6C5CA;" d="M405.019,238.234c-43.506,0-78.765-35.335-78.765-78.841c0,43.505-35.259,78.841-78.754,78.841
		v60.559h84.669V495h118.398V223.701c-1.274,0.907-2.574,1.779-3.903,2.61C434.588,233.871,420.315,238.234,405.019,238.234z"/>
	<rect x="162.831" y="298.793" style="fill:#FF5023;" width="169.338" height="196.207"/>
	<path style="fill:#CD2A00;" d="M168.746,159.393c0,43.505,35.259,78.841,78.754,78.841c43.495,0,78.754-35.335,78.754-78.841
		H168.746z"/>
	<path style="fill:#CD2A00;" d="M89.981,238.234c43.506,0,78.765-35.335,78.765-78.841H11.227c0,26.527,13.115,50.012,33.206,64.308
		c1.274,0.907,2.574,1.779,3.903,2.61C60.412,233.871,74.685,238.234,89.981,238.234z"/>
	<path style="fill:#CD2A00;" d="M483.773,159.393H326.254c0,43.505,35.259,78.841,78.765,78.841c15.296,0,29.57-4.363,41.645-11.923
		c1.329-0.831,2.629-1.703,3.903-2.61C470.659,209.405,483.773,185.92,483.773,159.393z"/>
	<polygon style="fill:#FF5023;" points="247.5,159.393 247.5,75.221 48.336,75.221 11.227,159.393 	"/>
	<polygon style="fill:#FF3501;" points="247.5,75.221 247.5,159.393 483.773,159.393 446.664,75.221 	"/>
</g>
<g>
</g>
<g>
</g>
<g>
</g>
<g>
</g>
<g>
</g>
<g>
</g>
<g>
</g>
<g>
</g>
<g>
</g>
<g>
</g>
<g>
</g>
<g>
</g>
<g>
</g>
<g>
</g>
<g>
</g>
</svg>
